# xmcd
# 
# Track frame offsets:
#     150
#     21161
#     34417
#     47304
#     67283
#     88684
#     118803
#     135828
#     155285
#     179842
# 
# Disc length: 2685
# 
# Revision: 0
# Processed by: cddbd v1.5.2PL0 Copyright (c) Steve Scherf et al.
# Submitted via: fre:ac v1.0.31
# 
DISCID=870a7b0a
DTITLE=Various Artist - Best of Canned Heat
DYEAR=2006
DGENRE=Blues
TTITLE0=Canned Heat - On the Road Again (live)
TTITLE1=Canned Heat - Going Up The Country
TTITLE2=Canned Heat - Let's Work Together
TTITLE3=Canned Heat - It Don't Matter
TTITLE4=Corey Stevens, John Lee Hooker, featured - Getaway
TTITLE5=Taj Mahal, John Lee Hooker, featured - Never Get Out Of These Blues Alive
TTITLE6=John Lee Hooker, Henry Vestine, Larry Taylor, featured - Little Wheel
TTITLE7=Canned Heat - Black Coffee
TTITLE8=Walter Trout, featured - Home To You
TTITLE9=Roy Rogers, featured - Bad Trouble
EXTD=
EXTT0=
EXTT1=
EXTT2=
EXTT3=
EXTT4=
EXTT5=
EXTT6=
EXTT7=
EXTT8=
EXTT9=
PLAYORDER=
